<svg width="50" height="50" viewBox="0 0 50 50" fill="none" xmlns="http://www.w3.org/2000/svg">
<path fill-rule="evenodd" clip-rule="evenodd" d="M32.9025 2.0835C33.765 2.0835 34.465 2.7835 34.465 3.646L34.4659 5.41227C37.5078 5.62082 40.0342 6.66276 41.8223 8.45454C43.7744 10.415 44.8014 13.2337 44.7911 16.615V35.6212C44.7911 42.5629 40.3827 46.8754 33.2889 46.8754H15.6681C8.57435 46.8754 4.16602 42.5025 4.16602 35.4629V16.6108C4.16602 10.0633 8.09738 5.86045 14.5091 5.41298L14.5104 3.646C14.5104 2.7835 15.2104 2.0835 16.0729 2.0835C16.9354 2.0835 17.6354 2.7835 17.6354 3.646L17.6348 5.37308H31.3389L31.34 3.646C31.34 2.7835 32.04 2.0835 32.9025 2.0835ZM41.666 20.6335H7.29102V35.4629C7.29102 40.8087 10.266 43.7504 15.6681 43.7504H33.2889C38.691 43.7504 41.6661 40.8629 41.6661 35.6212L41.666 20.6335ZM33.7519 33.7425C34.6144 33.7425 35.3144 34.4425 35.3144 35.305C35.3144 36.1675 34.6144 36.8675 33.7519 36.8675C32.8894 36.8675 32.181 36.1675 32.181 35.305C32.181 34.4425 32.8706 33.7425 33.7331 33.7425H33.7519ZM24.5071 33.7425C25.3696 33.7425 26.0696 34.4425 26.0696 35.305C26.0696 36.1675 25.3696 36.8675 24.5071 36.8675C23.6446 36.8675 22.9362 36.1675 22.9362 35.305C22.9362 34.4425 23.6258 33.7425 24.4883 33.7425H24.5071ZM15.2429 33.7425C16.1054 33.7425 16.8054 34.4425 16.8054 35.305C16.8054 36.1675 16.1054 36.8675 15.2429 36.8675C14.3804 36.8675 13.67 36.1675 13.67 35.305C13.67 34.4425 14.3616 33.7425 15.2241 33.7425H15.2429ZM33.7519 25.6452C34.6144 25.6452 35.3144 26.3452 35.3144 27.2077C35.3144 28.0702 34.6144 28.7702 33.7519 28.7702C32.8894 28.7702 32.181 28.0702 32.181 27.2077C32.181 26.3452 32.8706 25.6452 33.7331 25.6452H33.7519ZM24.5071 25.6452C25.3696 25.6452 26.0696 26.3452 26.0696 27.2077C26.0696 28.0702 25.3696 28.7702 24.5071 28.7702C23.6446 28.7702 22.9362 28.0702 22.9362 27.2077C22.9362 26.3452 23.6258 25.6452 24.4883 25.6452H24.5071ZM15.2429 25.6452C16.1054 25.6452 16.8054 26.3452 16.8054 27.2077C16.8054 28.0702 16.1054 28.7702 15.2429 28.7702C14.3804 28.7702 13.67 28.0702 13.67 27.2077C13.67 26.3452 14.3616 25.6452 15.2241 25.6452H15.2429ZM31.3389 8.49808H17.6348L17.6354 10.5022C17.6354 11.3647 16.9354 12.0647 16.0729 12.0647C15.2104 12.0647 14.5104 11.3647 14.5104 10.5022L14.5093 8.54538C9.84214 8.93744 7.29102 11.7665 7.29102 16.6108V17.5085H41.666L41.6661 16.6108C41.6744 14.0379 40.9827 12.0379 39.6098 10.6629C38.4046 9.45414 36.6428 8.73225 34.4667 8.54637L34.465 10.5022C34.465 11.3647 33.765 12.0647 32.9025 12.0647C32.04 12.0647 31.34 11.3647 31.34 10.5022L31.3389 8.49808Z" fill="#808191"/>
</svg>
