<svg width="50" height="50" viewBox="0 0 50 50" fill="none" xmlns="http://www.w3.org/2000/svg">
<path fill-rule="evenodd" clip-rule="evenodd" d="M9.42434 3.33301H9.25511C8.48003 3.33301 7.81326 3.33301 7.22434 3.47178C6.31265 3.68963 5.47906 4.15563 4.81595 4.81814C4.15284 5.48066 3.68609 6.31382 3.46742 7.22532C3.33203 7.81424 3.33203 8.47762 3.33203 9.25608V17.7176C3.33203 18.4927 3.33203 19.1595 3.4708 19.7484C3.68865 20.6601 4.15465 21.4937 4.81716 22.1568C5.47968 22.8199 6.31284 23.2866 7.22434 23.5053C7.81326 23.6407 8.47665 23.6407 9.25511 23.6407H17.7166C18.4917 23.6407 19.1585 23.6407 19.7474 23.5019C20.6591 23.2841 21.4927 22.8181 22.1558 22.1556C22.8189 21.4931 23.2857 20.6599 23.5043 19.7484C23.6397 19.1595 23.6397 18.4961 23.6397 17.7176V9.25608C23.6397 8.48101 23.6397 7.81424 23.501 7.22532C23.2831 6.31362 22.8171 5.48004 22.1546 4.81693C21.4921 4.15381 20.6589 3.68706 19.7474 3.46839C19.1585 3.33301 18.4951 3.33301 17.7166 3.33301H9.42434ZM8.01295 6.76501C8.15849 6.73116 8.38526 6.71762 9.42434 6.71762H17.5474C18.5899 6.71762 18.8133 6.72778 18.9588 6.76501C19.2628 6.83771 19.5408 6.99322 19.7618 7.21427C19.9829 7.43532 20.1384 7.71328 20.2111 8.01732C20.245 8.15947 20.2551 8.38285 20.2551 9.42532V17.5484C20.2551 18.5909 20.245 18.8142 20.2077 18.9598C20.135 19.2638 19.9795 19.5418 19.7585 19.7628C19.5374 19.9839 19.2595 20.1394 18.9554 20.2121C18.8166 20.2425 18.5933 20.2561 17.5474 20.2561H9.42434C8.38188 20.2561 8.15849 20.2459 8.01295 20.2087C7.70891 20.136 7.43096 19.9805 7.20991 19.7594C6.98885 19.5384 6.83335 19.2604 6.76065 18.9564C6.73019 18.8176 6.71665 18.5942 6.71665 17.5484V9.42532C6.71665 8.38285 6.7268 8.15947 6.76403 8.01393C6.83674 7.70989 6.99224 7.43193 7.21329 7.21088C7.43434 6.98983 7.7123 6.83433 8.01634 6.76162L8.01295 6.76501ZM33.1166 3.33301H32.9474C32.1723 3.33301 31.5056 3.33301 30.9166 3.47178C30.005 3.68963 29.1714 4.15563 28.5083 4.81814C27.8451 5.48066 27.3784 6.31382 27.1597 7.22532C27.0243 7.81424 27.0243 8.47762 27.0243 9.25608V17.7176C27.0243 18.4927 27.0243 19.1595 27.1631 19.7484C27.381 20.6601 27.847 21.4937 28.5095 22.1568C29.172 22.8199 30.0051 23.2866 30.9166 23.5053C31.5056 23.6407 32.169 23.6407 32.9474 23.6407H41.409C42.184 23.6407 42.8508 23.6407 43.4397 23.5019C44.3514 23.2841 45.185 22.8181 45.8481 22.1556C46.5112 21.4931 46.978 20.6599 47.1966 19.7484C47.332 19.1595 47.332 18.4961 47.332 17.7176V9.25608C47.332 8.48101 47.332 7.81424 47.1933 7.22532C46.9754 6.31362 46.5094 5.48004 45.8469 4.81693C45.1844 4.15381 44.3512 3.68706 43.4397 3.46839C42.8508 3.33301 42.1874 3.33301 41.409 3.33301H33.1166ZM31.7053 6.76501C31.8508 6.73116 32.0776 6.71762 33.1166 6.71762H41.2397C42.2822 6.71762 42.5056 6.72778 42.6511 6.76501C42.9551 6.83771 43.2331 6.99322 43.4542 7.21427C43.6752 7.43532 43.8307 7.71328 43.9034 8.01732C43.9373 8.15947 43.9474 8.38285 43.9474 9.42532V17.5484C43.9474 18.5909 43.9339 18.8142 43.9 18.9598C43.8273 19.2638 43.6718 19.5418 43.4508 19.7628C43.2297 19.9839 42.9518 20.1394 42.6477 20.2121C42.5056 20.2459 42.2822 20.2561 41.2397 20.2561H33.1166C32.0742 20.2561 31.8508 20.2459 31.7053 20.2087C31.4012 20.136 31.1233 19.9805 30.9022 19.7594C30.6812 19.5384 30.5257 19.2604 30.453 18.9564C30.4225 18.8176 30.409 18.5942 30.409 17.5484V9.42532C30.409 8.38285 30.4191 8.15947 30.4563 8.01393C30.529 7.70989 30.6845 7.43193 30.9056 7.21088C31.1266 6.98983 31.4046 6.83433 31.7086 6.76162L31.7053 6.76501ZM9.25511 27.0253H17.7166C18.4917 27.0253 19.1585 27.0253 19.7474 27.1641C20.6591 27.3819 21.4927 27.8479 22.1558 28.5104C22.8189 29.173 23.2857 30.0061 23.5043 30.9176C23.6397 31.5065 23.6397 32.1699 23.6397 32.9484V41.4099C23.6397 42.185 23.6397 42.8518 23.501 43.4407C23.2831 44.3524 22.8171 45.186 22.1546 45.8491C21.4921 46.5122 20.6589 46.9789 19.7474 47.1976C19.1585 47.333 18.4951 47.333 17.7166 47.333H9.25511C8.48003 47.333 7.81326 47.333 7.22434 47.1942C6.31265 46.9764 5.47906 46.5104 4.81595 45.8479C4.15284 45.1854 3.68609 44.3522 3.46742 43.4407C3.33203 42.8518 3.33203 42.1884 3.33203 41.4099V32.9484C3.33203 32.1733 3.33203 31.5065 3.4708 30.9176C3.68865 30.0059 4.15465 29.1723 4.81716 28.5092C5.47968 27.8461 6.31284 27.3794 7.22434 27.1607C7.81326 27.0253 8.47665 27.0253 9.25511 27.0253ZM9.42434 30.4099C8.38188 30.4099 8.15849 30.4201 8.01295 30.4573C7.70891 30.53 7.43096 30.6855 7.20991 30.9066C6.98885 31.1276 6.83335 31.4056 6.76065 31.7096C6.73019 31.8484 6.71665 32.0718 6.71665 33.1176V41.2407C6.71665 42.2832 6.7268 42.5065 6.76403 42.6521C6.83674 42.9561 6.99224 43.2341 7.21329 43.4551C7.43434 43.6762 7.7123 43.8317 8.01634 43.9044C8.15849 43.9382 8.38188 43.9484 9.42434 43.9484H17.5474C18.5899 43.9484 18.8133 43.9349 18.9588 43.901C19.2628 43.8283 19.5408 43.6728 19.7618 43.4517C19.9829 43.2307 20.1384 42.9527 20.2111 42.6487C20.245 42.5065 20.2551 42.2832 20.2551 41.2407V33.1176C20.2551 32.0752 20.245 31.8518 20.2077 31.7062C20.135 31.4022 19.9795 31.1242 19.7585 30.9032C19.5374 30.6821 19.2595 30.5266 18.9554 30.4539C18.8166 30.4235 18.5933 30.4099 17.5474 30.4099H9.42434ZM33.1166 27.0253H32.9474C32.1723 27.0253 31.5056 27.0253 30.9166 27.1641C30.005 27.3819 29.1714 27.8479 28.5083 28.5104C27.8451 29.173 27.3784 30.0061 27.1597 30.9176C27.0243 31.5065 27.0243 32.1699 27.0243 32.9484V41.4099C27.0243 42.185 27.0243 42.8518 27.1631 43.4407C27.381 44.3524 27.847 45.186 28.5095 45.8491C29.172 46.5122 30.0051 46.9789 30.9166 47.1976C31.5056 47.3364 32.1723 47.3364 32.9474 47.3364H41.409C42.184 47.3364 42.8508 47.3364 43.4397 47.1976C44.3508 46.9792 45.1837 46.513 45.8461 45.8505C46.5086 45.188 46.9749 44.3552 47.1933 43.4441C47.332 42.8552 47.332 42.1884 47.332 41.4133V32.9484C47.332 32.1733 47.332 31.5065 47.1933 30.9176C46.9754 30.0059 46.5094 29.1723 45.8469 28.5092C45.1844 27.8461 44.3512 27.3794 43.4397 27.1607C42.8508 27.0253 42.1874 27.0253 41.409 27.0253H33.1166ZM31.7053 30.4573C31.8508 30.4235 32.0776 30.4099 33.1166 30.4099H41.2397C42.2822 30.4099 42.5056 30.4201 42.6511 30.4573C42.9551 30.53 43.2331 30.6855 43.4542 30.9066C43.6752 31.1276 43.8307 31.4056 43.9034 31.7096C43.9373 31.8518 43.9474 32.0752 43.9474 33.1176V41.2407C43.9474 42.2832 43.9339 42.5065 43.9 42.6521C43.8273 42.9561 43.6718 43.2341 43.4508 43.4551C43.2297 43.6762 42.9518 43.8317 42.6477 43.9044C42.5056 43.9382 42.2822 43.9484 41.2397 43.9484H33.1166C32.0742 43.9484 31.8508 43.9349 31.7053 43.901C31.4012 43.8283 31.1233 43.6728 30.9022 43.4517C30.6812 43.2307 30.5257 42.9527 30.453 42.6487C30.4225 42.5099 30.409 42.2865 30.409 41.2407V33.1176C30.409 32.0752 30.4191 31.8518 30.4563 31.7062C30.529 31.4022 30.6845 31.1242 30.9056 30.9032C31.1266 30.6821 31.4046 30.5266 31.7086 30.4539L31.7053 30.4573Z" fill="#808191"/>
</svg>
