<svg width="50" height="50" viewBox="0 0 50 50" fill="none" xmlns="http://www.w3.org/2000/svg">
<path fill-rule="evenodd" clip-rule="evenodd" d="M21.1409 10.8407C22.043 11.549 22.5617 12.6052 22.5617 13.7386C22.5617 22.874 22.8701 25.3323 24.1305 26.2677C24.9576 26.8782 26.0909 26.8719 29.9096 26.7657C31.6846 26.7136 33.9576 26.6469 36.9346 26.6469C38.1221 26.6469 39.2409 27.1552 39.9992 28.0407C40.7034 28.8636 41.0117 29.9386 40.8492 30.9969C39.4576 40.0073 31.7909 46.5511 22.6201 46.5511C12.4451 46.5511 4.16797 38.274 4.16797 28.1011C4.16797 20.0344 10.268 11.9677 17.7659 10.1219C18.9367 9.8365 20.1951 10.1032 21.1409 10.8407ZM18.7138 13.1323C18.6471 13.1323 18.5805 13.1407 18.5138 13.1573C12.3263 14.6802 7.29297 21.3844 7.29297 28.1011C7.29297 36.5511 14.168 43.4261 22.6201 43.4261C30.2388 43.4261 36.6055 37.999 37.7596 30.5198C37.768 30.4573 37.7971 30.2761 37.6263 30.074C37.4638 29.8844 37.2055 29.7719 36.9346 29.7719C33.9951 29.7719 31.7513 29.8386 29.9992 29.8886C25.7576 30.0157 24.0034 30.0636 22.2701 28.7782C19.7915 26.942 19.4657 23.8551 19.4388 15.1928L19.4367 13.7386C19.4367 13.5636 19.3617 13.4177 19.2117 13.3011C19.0721 13.1907 18.8951 13.1323 18.7138 13.1323ZM41.773 7.77879C45.4355 11.4392 47.7605 16.2496 47.6938 20.035C47.6688 21.5121 46.5959 22.7455 45.1459 22.9642C42.3167 23.3913 39.0042 23.5205 36.073 23.5205C33.3438 23.5205 30.9417 23.41 29.5605 23.3309C27.823 23.2288 26.4396 21.8434 26.3396 20.1059C26.1771 17.3517 25.8251 10.3538 26.0751 4.94129C26.1438 3.36837 27.4146 2.11629 28.9688 2.08921C33.4209 1.96004 38.0146 4.02671 41.773 7.77879ZM29.2355 5.21212H29.1896C28.9605 10.46 29.3001 17.2392 29.4584 19.9246C29.4667 20.085 29.5834 20.2017 29.7417 20.21C31.8834 20.333 39.2625 20.6746 44.5689 19.8934C44.5813 16.9684 42.5792 13.0017 39.5646 9.98921C36.473 6.90171 32.8146 5.21212 29.2355 5.21212Z" fill="#808191"/>
</svg>
