<svg width="50" height="50" viewBox="0 0 50 50" fill="none" xmlns="http://www.w3.org/2000/svg">
<path fill-rule="evenodd" clip-rule="evenodd" d="M25.5563 4.16748C27.0479 4.16748 28.4979 4.77998 29.5375 5.84456C30.575 6.9154 31.1479 8.38415 31.1042 9.87373C31.1084 10.2091 31.2188 10.5966 31.4188 10.9362C31.75 11.4987 32.2729 11.8946 32.8938 12.0571C33.5146 12.2112 34.1646 12.1279 34.7167 11.8008C37.3834 10.2779 40.7771 11.1904 42.3 13.8362L43.5979 16.0841C43.6313 16.1446 43.6604 16.2029 43.6854 16.2633C45.0646 18.8696 44.1438 22.1508 41.5813 23.6487C41.2084 23.8633 40.9063 24.1633 40.6979 24.5258C40.375 25.0862 40.2854 25.7529 40.4479 26.3654C40.6146 26.9904 41.0125 27.5091 41.5729 27.83C42.8375 28.5571 43.7813 29.7821 44.1584 31.1966C44.5354 32.6091 44.3292 34.1425 43.5938 35.4071L42.2104 37.7112C40.6875 40.3279 37.2938 41.2341 34.6542 39.7091C34.3021 39.5071 33.8959 39.3966 33.4917 39.3862H33.4792C32.8771 39.3862 32.2584 39.6425 31.8084 40.0904C31.3521 40.5466 31.1021 41.155 31.1063 41.8008C31.0917 44.8612 28.6021 47.3362 25.5563 47.3362H22.9459C19.8854 47.3362 17.3958 44.8487 17.3958 41.7883C17.3917 41.4112 17.2833 41.0196 17.0813 40.68C16.7542 40.1091 16.225 39.7008 15.6146 39.5383C15.0083 39.3758 14.3438 39.4654 13.7979 39.7821C12.4896 40.5112 10.95 40.6883 9.54168 40.2925C8.13543 39.8946 6.92085 38.9279 6.20835 37.6466L4.90627 35.4029C3.38335 32.7612 4.2896 29.3758 6.9271 27.8508C7.67502 27.4196 8.1396 26.6154 8.1396 25.7529C8.1396 24.8904 7.67502 24.0841 6.9271 23.6529C4.28752 22.1196 3.38335 18.7258 4.90418 16.0841L6.31668 13.7654C7.81877 11.1529 11.2146 10.2321 13.8625 11.7529C14.2229 11.9675 14.6146 12.0758 15.0125 12.08C16.3104 12.08 17.3958 11.0091 17.4167 9.69248C17.4083 8.2404 17.9813 6.84665 19.025 5.79456C20.0729 4.74456 21.4646 4.16748 22.9459 4.16748H25.5563ZM25.5563 7.29248H22.9459C22.3 7.29248 21.6959 7.54456 21.2396 7.99873C20.7854 8.45498 20.5375 9.06123 20.5417 9.70706C20.4979 12.7529 18.0083 15.205 14.9938 15.205C14.0271 15.1946 13.0958 14.9341 12.2875 14.4508C11.1521 13.805 9.66877 14.2029 9.00418 15.3591L7.59377 17.6779C6.94793 18.7987 7.34377 20.28 8.49377 20.9487C10.2 21.9362 11.2646 23.7779 11.2646 25.7529C11.2646 27.7279 10.2 29.5675 8.4896 30.5571C7.34585 31.2196 6.95002 32.6925 7.61252 33.8383L8.9271 36.105C9.2521 36.6904 9.78335 37.1133 10.3979 37.2862C11.0104 37.4571 11.6854 37.3841 12.2479 37.0716C13.075 36.5862 14.0375 36.3341 15.0042 36.3341C15.4813 36.3341 15.9583 36.3946 16.425 36.5196C17.8333 36.8987 19.0563 37.8404 19.7813 39.105C20.2521 39.8987 20.5125 40.8258 20.5208 41.7716C20.5208 43.1258 21.6084 44.2112 22.9459 44.2112H25.5563C26.8875 44.2112 27.975 43.1321 27.9813 41.8008C27.9729 40.33 28.5479 38.9321 29.6 37.88C30.6375 36.8425 32.0875 36.2196 33.5375 36.2612C34.4875 36.2841 35.4021 36.5404 36.2084 36.9987C37.3688 37.6633 38.85 37.2675 39.5209 36.1216L40.9042 33.8154C41.2125 33.2841 41.3021 32.6175 41.1375 32.0029C40.975 31.3883 40.5667 30.855 40.0167 30.5404C38.7292 29.7987 37.8104 28.6029 37.4292 27.1696C37.0521 25.7633 37.2584 24.2279 37.9938 22.9633C38.4729 22.13 39.175 21.4279 40.0167 20.9446C41.1459 20.2841 41.5417 18.8071 40.8854 17.6571C40.8584 17.6112 40.8334 17.5633 40.8125 17.5133L39.5917 15.3966C38.9271 14.2404 37.4479 13.8425 36.2875 14.5029C35.0334 15.2446 33.5417 15.4571 32.1084 15.08C30.6771 14.7091 29.4771 13.8029 28.7292 12.5237C28.25 11.7237 27.9896 10.7925 27.9813 9.84456C28 9.13206 27.75 8.49248 27.2959 8.02373C26.8438 7.55706 26.2084 7.29248 25.5563 7.29248ZM24.2602 18.6969C28.1498 18.6969 31.3144 21.8635 31.3144 25.7531C31.3144 29.6427 28.1498 32.8052 24.2602 32.8052C20.3706 32.8052 17.2061 29.6427 17.2061 25.7531C17.2061 21.8635 20.3706 18.6969 24.2602 18.6969ZM24.2602 21.8219C22.0936 21.8219 20.3311 23.5864 20.3311 25.7531C20.3311 27.9198 22.0936 29.6802 24.2602 29.6802C26.4269 29.6802 28.1894 27.9198 28.1894 25.7531C28.1894 23.5864 26.4269 21.8219 24.2602 21.8219Z" fill="#808191"/>
</svg>
